# xmcd
#
# Track frame offsets:
#	150
#	16051
#	37459
#	56577
#	75759
#
# Disc length: 1762 seconds
#
# Revision: 0
# Processed by: cddbd v1.4PL0 Copyright (c) Steve Scherf et al.
# Submitted via: dBpowerAMP V4.0
#
DISCID=3106e005
DTITLE=Small Rubber Robots - Demo (Paul Michaels)
DYEAR=1900
DGENRE=
TTITLE0=Holes
TTITLE1=Lay it Down
TTITLE2=(A Love Song)
TTITLE3=The Calm
TTITLE4=Lament
EXTD=
EXTT0=
EXTT1=
EXTT2=
EXTT3=
EXTT4=
PLAYORDER=
